<?xml version="1.0" encoding="UTF-8"?>
<svg xmlns="http://www.w3.org/2000/svg" xmlns:xlink="http://www.w3.org/1999/xlink" width="246px" height="299px" viewBox="0 0 246 298" version="1.1">
<g id="surface1">
<path style=" stroke:none;fill-rule:nonzero;fill:rgb(94.901961%,94.901961%,94.901961%);fill-opacity:1;" d="M 47.132812 116.867188 C 46.847656 116.421875 45.054688 113.621094 43.726562 113.90625 C 41.207031 114.441406 42.574219 125.589844 38.910156 126.699219 C 38.105469 126.945312 36.972656 126.730469 34.445312 127.40625 C 33.441406 127.675781 32.921875 127.894531 32.757812 128.339844 C 32.527344 128.96875 33.222656 129.5 34.253906 131.039062 C 35.800781 133.34375 35.324219 133.769531 36.6875 135.421875 C 37.695312 136.644531 38.488281 137.054688 38.332031 137.59375 C 38.113281 138.355469 36.382812 138.027344 35.96875 138.902344 C 35.546875 139.792969 36.777344 141.332031 37.839844 142.273438 C 39.835938 144.039062 41.824219 144.207031 43.648438 144.789062 C 45.628906 145.417969 48.335938 146.824219 51.140625 150.335938 L 73.546875 180.613281 C 71.738281 179.929688 68.21875 178.523438 63.414062 176.125 C 59.363281 174.097656 55.347656 171.792969 51.480469 169.265625 C 49.8125 168.179688 48.351562 167.164062 47.042969 166.222656 L 47.175781 166.289062 L 46.535156 163.980469 C 46.289062 163.058594 46.128906 162.308594 46.46875 161.707031 C 46.65625 161.382812 47.011719 161.050781 47.425781 160.664062 C 47.898438 160.222656 48.4375 159.722656 48.960938 159.027344 C 49.445312 158.402344 49.558594 157.847656 49.316406 157.378906 C 49.234375 157.222656 49.125 157.109375 49.011719 157.023438 C 49.140625 156.820312 49.289062 156.574219 49.421875 156.285156 C 49.699219 155.664062 49.769531 155.132812 49.820312 154.734375 C 50.023438 153.144531 49.761719 152.207031 49.046875 151.949219 C 48.746094 151.839844 48.472656 151.890625 48.246094 151.996094 C 48.226562 151.671875 48.183594 151.289062 48.066406 150.875 C 47.683594 149.546875 47.148438 148.871094 46.4375 148.816406 C 45.445312 148.738281 44.945312 149.832031 44.367188 151.097656 C 44.109375 151.660156 43.425781 153.15625 43.070312 153.160156 C 43.027344 153.160156 42.902344 153.132812 42.792969 153.105469 C 42.488281 153.039062 42.027344 152.941406 41.3125 152.921875 C 40.910156 152.910156 40.304688 152.890625 39.933594 153.390625 C 39.601562 153.863281 39.765625 154.371094 39.914062 154.777344 C 39.964844 154.910156 40.023438 155.066406 40.085938 155.261719 C 40.21875 155.699219 40.242188 155.933594 40.265625 156.164062 C 40.292969 156.460938 40.324219 156.769531 40.539062 157.28125 C 40.554688 157.320312 40.574219 157.359375 40.589844 157.398438 C 40.390625 157.445312 40.179688 157.542969 40 157.738281 C 39.335938 158.460938 39.957031 159.660156 40.253906 160.136719 C 40.785156 160.992188 41.460938 161.402344 42 161.730469 C 42.136719 161.8125 42.273438 161.894531 42.402344 161.984375 C 43.074219 162.441406 43.632812 163.136719 44.082031 164.027344 C 43.550781 163.625 43.046875 163.238281 42.570312 162.871094 C 40.871094 161.566406 39.273438 160.292969 37.714844 159.050781 C 36.109375 157.777344 34.539062 156.527344 32.945312 155.308594 L 33.042969 154.871094 L 32.660156 155.09375 C 30.140625 153.183594 27.546875 151.347656 24.636719 149.605469 C 24.515625 149.53125 24.375 149.449219 24.230469 149.363281 L 24.089844 148.863281 C 23.84375 147.945312 23.683594 147.195312 24.023438 146.589844 C 24.214844 146.269531 24.566406 145.933594 24.980469 145.546875 C 25.453125 145.105469 25.992188 144.605469 26.515625 143.914062 C 27.003906 143.289062 27.113281 142.730469 26.871094 142.265625 C 26.789062 142.105469 26.679688 141.992188 26.566406 141.910156 C 26.695312 141.703125 26.84375 141.460938 26.976562 141.167969 C 27.257812 140.546875 27.324219 140.015625 27.375 139.621094 C 27.578125 138.03125 27.320312 137.09375 26.605469 136.835938 C 26.300781 136.726562 26.03125 136.773438 25.800781 136.882812 C 25.785156 136.554688 25.742188 136.171875 25.621094 135.757812 C 25.238281 134.429688 24.703125 133.757812 23.996094 133.703125 C 23 133.621094 22.5 134.71875 21.921875 135.984375 C 21.664062 136.542969 20.984375 138.042969 20.628906 138.042969 C 20.582031 138.042969 20.457031 138.015625 20.347656 137.992188 C 20.042969 137.925781 19.585938 137.824219 18.867188 137.804688 C 18.464844 137.792969 17.859375 137.777344 17.488281 138.273438 C 17.15625 138.75 17.320312 139.253906 17.472656 139.660156 C 17.519531 139.792969 17.582031 139.953125 17.640625 140.144531 C 17.777344 140.582031 17.800781 140.820312 17.820312 141.046875 C 17.851562 141.347656 17.878906 141.65625 18.09375 142.164062 C 18.113281 142.207031 18.128906 142.246094 18.144531 142.28125 C 17.945312 142.328125 17.734375 142.425781 17.558594 142.621094 C 16.890625 143.347656 17.511719 144.546875 17.808594 145.023438 C 18.339844 145.875 19.015625 146.285156 19.558594 146.617188 C 19.695312 146.699219 19.828125 146.78125 19.957031 146.871094 C 20.339844 147.128906 20.679688 147.464844 20.992188 147.863281 C 20.003906 147.53125 18.863281 147.257812 17.578125 147.140625 C 16.039062 147 14.484375 147.101562 12.929688 147.441406 C 12.917969 147.324219 12.910156 147.210938 12.898438 147.082031 C 12.765625 145.65625 12.667969 145.066406 12.175781 144.511719 C 11.9375 144.242188 11.570312 143.945312 10.527344 143.601562 C 9.078125 143.132812 7.835938 143.0625 7.488281 143.050781 C 5.753906 143 4.257812 142.957031 2.898438 144.003906 C 2.640625 144.199219 1.851562 144.800781 1.417969 145.855469 C 1.199219 146.390625 1.15625 146.824219 1.125 147.171875 C 1.09375 147.539062 1.070312 147.777344 0.867188 148.117188 C 0.734375 148.332031 0.582031 148.507812 0.457031 148.648438 C 0.21875 148.933594 -0.230469 149.449219 0.144531 150.011719 C 0.234375 150.148438 0.351562 150.242188 0.480469 150.308594 C 0.410156 150.785156 0.453125 151.277344 0.691406 151.726562 C 0.902344 152.128906 1.265625 152.398438 2.253906 152.878906 C 3.757812 153.613281 4.972656 153.96875 5.214844 154.039062 C 6.777344 154.480469 7.5625 154.703125 8.402344 154.671875 C 10.191406 154.601562 11.488281 154.046875 12.261719 153.023438 C 12.300781 152.976562 12.335938 152.925781 12.371094 152.871094 C 12.914062 152.070312 12.972656 151.230469 13.066406 149.894531 C 13.085938 149.636719 13.078125 149.339844 13.054688 148.960938 C 14.523438 148.617188 15.992188 148.503906 17.4375 148.636719 C 20.566406 148.921875 22.792969 150.253906 23.859375 150.890625 C 26.523438 152.484375 28.921875 154.164062 31.246094 155.914062 L 30.964844 156.074219 C 30.136719 156.546875 29.453125 156.890625 28.78125 156.714844 C 28.421875 156.617188 28.007812 156.359375 27.527344 156.054688 C 26.980469 155.710938 26.359375 155.316406 25.554688 154.988281 C 24.824219 154.675781 24.257812 154.710938 23.867188 155.066406 C 23.734375 155.183594 23.652344 155.316406 23.601562 155.449219 C 23.367188 155.375 23.09375 155.292969 22.777344 155.242188 C 22.105469 155.128906 21.574219 155.195312 21.179688 155.25 C 19.585938 155.457031 18.742188 155.941406 18.671875 156.699219 C 18.644531 157.019531 18.761719 157.269531 18.925781 157.460938 C 18.613281 157.5625 18.25 157.703125 17.878906 157.921875 C 16.691406 158.628906 16.171875 159.316406 16.300781 160.015625 C 16.476562 160.992188 17.664062 161.199219 19.035156 161.4375 C 19.644531 161.542969 21.269531 161.820312 21.359375 162.164062 C 21.371094 162.207031 21.378906 162.335938 21.382812 162.449219 C 21.394531 162.757812 21.414062 163.226562 21.578125 163.925781 C 21.667969 164.316406 21.804688 164.90625 22.378906 165.136719 C 22.925781 165.335938 23.375 165.050781 23.726562 164.800781 C 23.84375 164.71875 23.984375 164.621094 24.15625 164.515625 C 24.546875 164.273438 24.769531 164.191406 24.984375 164.113281 C 25.265625 164.007812 25.558594 163.902344 25.996094 163.566406 C 26.03125 163.535156 26.066406 163.511719 26.097656 163.484375 C 26.195312 163.667969 26.339844 163.847656 26.578125 163.96875 C 27.449219 164.429688 28.449219 163.523438 28.839844 163.117188 C 29.53125 162.386719 29.757812 161.632812 29.9375 161.023438 C 29.984375 160.871094 30.03125 160.71875 30.082031 160.570312 C 30.414062 159.640625 31.105469 158.78125 32.136719 158.015625 L 32.359375 157.847656 L 32.574219 156.921875 C 33.976562 158 35.363281 159.101562 36.777344 160.226562 C 38.339844 161.472656 39.945312 162.75 41.652344 164.0625 C 43.917969 165.800781 46.734375 167.964844 50.65625 170.523438 C 54.574219 173.078125 58.640625 175.414062 62.742188 177.464844 C 66.394531 179.292969 69.324219 180.554688 71.332031 181.359375 C 65.480469 181.75 57.386719 182.214844 53.726562 182.28125 C 52.304688 182.304688 50.839844 182.285156 49.796875 181.300781 C 48.789062 180.355469 48.296875 178.632812 46.832031 176.835938 C 46.660156 176.625 46.179688 176.046875 45.75 176.148438 C 45.398438 176.234375 45.402344 176.707031 45.074219 176.792969 C 44.632812 176.902344 44.265625 176.144531 43.351562 175.429688 C 42.707031 174.925781 42.121094 174.703125 41.617188 174.507812 C 41.464844 174.449219 39.183594 173.589844 38.765625 174.214844 C 38.449219 174.683594 39.457031 175.585938 39.160156 175.980469 C 38.859375 176.375 37.757812 175.621094 36.089844 175.683594 C 35.789062 175.695312 33.894531 175.765625 33.648438 176.5 C 33.1875 177.886719 39.0625 180.433594 38.550781 182.550781 C 38.4375 183.015625 38.007812 183.507812 37.609375 184.941406 C 37.453125 185.511719 37.410156 185.832031 37.582031 186.039062 C 37.824219 186.332031 38.285156 186.144531 39.339844 186.082031 C 40.917969 185.988281 40.992188 186.347656 42.195312 186.15625 C 43.089844 186.015625 43.519531 185.746094 43.738281 185.976562 C 44.050781 186.304688 43.390625 187.054688 43.699219 187.511719 C 44.015625 187.976562 45.128906 187.816406 45.898438 187.566406 C 47.339844 187.097656 48 186.171875 48.808594 185.449219 C 49.691406 184.660156 51.164062 183.738281 53.699219 183.378906 L 71.65625 181.492188 C 72.707031 181.910156 73.480469 182.195312 73.933594 182.359375 C 74.171875 182.449219 74.324219 182.503906 74.390625 182.53125 L 74.628906 182.078125 L 74.894531 182.4375 C 74.8125 182.320312 74.722656 182.191406 74.632812 182.066406 L 74.734375 181.871094 L 75.421875 181.566406 C 75.328125 181.355469 75.226562 181.265625 74.953125 181.144531 L 76.335938 181 C 75.917969 181.035156 75.414062 181.074219 74.878906 181.113281 C 74.765625 181.066406 74.625 181.015625 74.453125 180.953125 C 74.25 180.878906 73.976562 180.777344 73.648438 180.652344 C 68.199219 172.8125 57 156.203125 52.828125 149.402344 C 51.523438 147.277344 50.253906 145.042969 50.8125 142.589844 C 51.351562 140.226562 53.523438 137.945312 54.949219 134.132812 C 55.113281 133.6875 55.5625 132.441406 55.027344 131.886719 C 54.582031 131.429688 53.871094 131.859375 53.453125 131.4375 C 52.890625 130.871094 53.710938 129.636719 53.980469 127.617188 C 54.171875 126.199219 53.992188 125.109375 53.835938 124.175781 C 53.789062 123.894531 53.0625 119.683594 51.742188 119.605469 C 50.75 119.546875 50.285156 121.871094 49.414062 121.773438 C 48.550781 121.675781 48.714844 119.332031 47.132812 116.867188 Z M 47.132812 116.867188 "/>
<path style=" stroke:none;fill-rule:nonzero;fill:rgb(90.196078%,90.196078%,90.196078%);fill-opacity:1;" d="M 230.667969 214.761719 L 70.289062 192.632812 C 64.921875 191.894531 60.492188 188.054688 59.003906 182.851562 L 22.167969 54.148438 C 20.921875 49.785156 21.851562 45.269531 24.726562 41.753906 C 27.597656 38.242188 31.84375 36.425781 36.375 36.769531 L 197.953125 49.128906 C 203.800781 49.574219 208.707031 53.683594 210.167969 59.351562 L 245.796875 197.828125 C 246.933594 202.246094 245.796875 206.917969 242.753906 210.324219 C 240.136719 213.253906 236.421875 214.894531 232.550781 214.894531 C 231.925781 214.894531 231.296875 214.851562 230.667969 214.761719 Z M 230.667969 214.761719 "/>
<path style=" stroke:none;fill-rule:nonzero;fill:rgb(100%,100%,100%);fill-opacity:1;" d="M 190.113281 185.96875 L 139.242188 178.953125 C 137.542969 178.71875 136.136719 177.5 135.664062 175.847656 L 123.980469 135.027344 C 123.585938 133.644531 123.878906 132.210938 124.792969 131.097656 C 125.703125 129.980469 127.050781 129.40625 128.488281 129.515625 L 179.734375 133.433594 C 181.589844 133.578125 183.148438 134.878906 183.609375 136.679688 L 194.910156 180.597656 C 195.269531 182 194.910156 183.480469 193.945312 184.5625 C 193.113281 185.492188 191.9375 186.011719 190.707031 186.011719 C 190.511719 186.011719 190.3125 186 190.113281 185.96875 Z M 190.113281 185.96875 "/>
<path style=" stroke:none;fill-rule:nonzero;fill:rgb(100%,100%,100%);fill-opacity:1;" d="M 185.5625 72.714844 L 91.132812 64.035156 C 88.753906 63.816406 86.898438 62.726562 87.003906 61.601562 C 87.105469 60.480469 89.128906 59.742188 91.507812 59.960938 L 185.9375 68.640625 C 188.316406 68.859375 190.167969 69.949219 190.066406 71.074219 C 189.960938 72.195312 187.941406 72.933594 185.5625 72.714844 Z M 185.5625 72.714844 "/>
<path style=" stroke:none;fill-rule:nonzero;fill:rgb(100%,100%,100%);fill-opacity:1;" d="M 190.710938 97.492188 L 96.28125 88.816406 C 93.902344 88.597656 92.046875 87.503906 92.152344 86.378906 C 92.253906 85.257812 94.277344 84.519531 96.65625 84.738281 L 191.085938 93.417969 C 193.464844 93.636719 195.316406 94.726562 195.214844 95.851562 C 195.109375 96.972656 193.089844 97.710938 190.710938 97.492188 Z M 190.710938 97.492188 "/>
<path style=" stroke:none;fill-rule:nonzero;fill:rgb(100%,100%,100%);fill-opacity:1;" d="M 192.527344 119.085938 L 98.101562 110.410156 C 95.71875 110.191406 93.867188 109.097656 93.972656 107.976562 C 94.074219 106.851562 96.09375 106.117188 98.476562 106.335938 L 192.902344 115.011719 C 195.285156 115.230469 197.136719 116.324219 197.03125 117.445312 C 196.929688 118.570312 194.910156 119.304688 192.527344 119.085938 Z M 192.527344 119.085938 "/>
<path style=" stroke:none;fill-rule:nonzero;fill:rgb(100%,71.372549%,71.372549%);fill-opacity:1;" d="M 135.628906 108.65625 C 138 106.078125 141.253906 105.210938 142.898438 106.714844 C 144.539062 108.222656 143.949219 111.53125 141.578125 114.109375 C 140.648438 115.152344 139.476562 115.957031 138.167969 116.457031 L 127.988281 127.253906 L 123.015625 122.375 L 133.578125 112.25 C 133.964844 110.90625 134.667969 109.671875 135.628906 108.65625 Z M 135.628906 108.65625 "/>
<path style=" stroke:none;fill-rule:nonzero;fill:rgb(42.352941%,38.823529%,100%);fill-opacity:1;" d="M 77.589844 111.058594 C 77.589844 111.058594 83.539062 105.625 90.65625 110.371094 C 97.777344 115.113281 114.355469 127.242188 114.355469 127.242188 L 125.972656 112.859375 L 135.125 121.144531 C 135.125 121.144531 118.976562 149.535156 108.546875 143.289062 C 98.113281 137.039062 74.828125 119.199219 75.882812 115.507812 C 76.941406 111.820312 77.589844 111.058594 77.589844 111.058594 Z M 77.589844 111.058594 "/>
<path style=" stroke:none;fill-rule:nonzero;fill:rgb(100%,71.372549%,71.372549%);fill-opacity:1;" d="M 121.640625 243.570312 L 112.160156 261.199219 L 104.355469 251.769531 L 113.335938 239.65625 Z M 121.640625 243.570312 "/>
<path style=" stroke:none;fill-rule:nonzero;fill:rgb(18.431373%,18.039216%,25.490196%);fill-opacity:1;" d="M 115.511719 258.761719 L 111.5 280.394531 C 111.5 280.394531 108.808594 287.898438 104.480469 280.277344 C 100.15625 272.65625 92.320312 256.890625 96.824219 254 C 101.328125 251.113281 106.769531 248.777344 106.769531 248.777344 Z M 115.511719 258.761719 "/>
<path style=" stroke:none;fill-rule:nonzero;fill:rgb(100%,71.372549%,71.372549%);fill-opacity:1;" d="M 127.234375 262.769531 L 137.234375 280.742188 L 124.734375 282.238281 L 119.234375 267.761719 Z M 127.234375 262.769531 "/>
<path style=" stroke:none;fill-rule:nonzero;fill:rgb(100%,71.372549%,71.372549%);fill-opacity:1;" d="M 74.234375 100.042969 C 74.234375 100.042969 73.234375 110.027344 71.734375 111.023438 C 70.234375 112.023438 89.242188 111.023438 89.242188 111.023438 L 83.734375 100.042969 Z M 74.234375 100.042969 "/>
<path style=" stroke:none;fill-rule:nonzero;fill:rgb(42.352941%,38.823529%,100%);fill-opacity:1;" d="M 94.730469 114.027344 L 87.734375 108.527344 L 70.628906 108.527344 L 59.234375 118.011719 L 66.484375 151.707031 L 62.984375 168.179688 L 107.484375 169.675781 L 99.484375 154.703125 C 99.484375 154.703125 108.984375 144.71875 105.984375 138.230469 C 102.984375 131.742188 94.730469 114.027344 94.730469 114.027344 Z M 94.730469 114.027344 "/>
<path style=" stroke:none;fill-rule:nonzero;fill:rgb(18.431373%,18.039216%,25.490196%);fill-opacity:1;" d="M 102.984375 165.683594 L 109.484375 169.175781 C 109.484375 169.175781 144.484375 202.121094 141.484375 212.105469 C 138.484375 222.089844 118.484375 250.539062 118.484375 250.539062 L 108.984375 245.550781 L 122.984375 215.101562 L 96.234375 188.394531 L 110.59375 213.664062 L 130.984375 267.011719 L 118.984375 272.003906 L 87.984375 209.609375 C 87.984375 209.609375 62.484375 192.140625 60.984375 181.15625 C 59.484375 170.175781 62.984375 168.179688 62.984375 168.179688 Z M 102.984375 165.683594 "/>
<path style=" stroke:none;fill-rule:nonzero;fill:rgb(18.431373%,18.039216%,25.490196%);fill-opacity:1;" d="M 136.984375 276.496094 L 153.484375 291.972656 C 153.484375 291.972656 158.484375 298.460938 149.484375 297.960938 C 140.484375 297.460938 122.484375 295.464844 122.484375 289.976562 C 122.484375 284.484375 123.484375 278.492188 123.484375 278.492188 Z M 136.984375 276.496094 "/>
<path style=" stroke:none;fill-rule:nonzero;fill:rgb(100%,71.372549%,71.372549%);fill-opacity:1;" d="M 90.734375 91.058594 C 90.734375 97.398438 85.585938 102.539062 79.234375 102.539062 C 72.882812 102.539062 67.734375 97.398438 67.734375 91.058594 C 67.734375 84.71875 72.882812 79.578125 79.234375 79.578125 C 85.585938 79.578125 90.734375 84.71875 90.734375 91.058594 Z M 90.734375 91.058594 "/>
<path style=" stroke:none;fill-rule:nonzero;fill:rgb(100%,100%,100%);fill-opacity:1;" d="M 129.121094 136.867188 L 119.644531 165.683594 C 119.390625 166.453125 118.734375 167.019531 117.9375 167.15625 L 99.8125 170.304688 C 98.1875 170.585938 96.84375 169.042969 97.351562 167.472656 L 106.816406 138.269531 C 107.070312 137.480469 107.75 136.902344 108.570312 136.777344 L 126.710938 134.023438 C 128.324219 133.777344 129.632812 135.320312 129.121094 136.867188 Z M 129.121094 136.867188 "/>
<path style=" stroke:none;fill-rule:nonzero;fill:rgb(24.705882%,23.921569%,33.72549%);fill-opacity:1;" d="M 99.425781 170.835938 C 98.65625 170.835938 97.921875 170.507812 97.402344 169.910156 C 96.78125 169.191406 96.582031 168.222656 96.875 167.320312 L 106.339844 138.113281 C 106.65625 137.140625 107.484375 136.4375 108.496094 136.285156 L 126.632812 133.53125 C 127.566406 133.386719 128.484375 133.730469 129.09375 134.449219 C 129.703125 135.167969 129.890625 136.128906 129.597656 137.023438 L 120.117188 165.839844 C 119.808594 166.785156 119.003906 167.476562 118.023438 167.648438 L 99.898438 170.792969 C 99.742188 170.820312 99.582031 170.835938 99.425781 170.835938 Z M 127.042969 134.496094 C 126.957031 134.496094 126.871094 134.503906 126.785156 134.515625 L 108.648438 137.273438 C 108.007812 137.367188 107.492188 137.808594 107.292969 138.421875 L 97.851562 167.550781 C 97.679688 168.085938 97.734375 168.6875 98.066406 169.140625 C 98.457031 169.671875 99.089844 169.917969 99.726562 169.8125 L 107 168.546875 C 114.292969 167.28125 120.296875 162.101562 122.605469 155.082031 L 128.628906 136.765625 C 128.78125 136.304688 128.761719 135.792969 128.523438 135.371094 C 128.207031 134.8125 127.644531 134.496094 127.042969 134.496094 Z M 127.042969 134.496094 "/>
<path style=" stroke:none;fill-rule:nonzero;fill:rgb(100%,71.372549%,71.372549%);fill-opacity:1;" d="M 101.453125 159.316406 C 104.957031 159.445312 107.730469 161.355469 107.644531 163.582031 C 107.5625 165.804688 104.65625 167.503906 101.152344 167.375 C 99.753906 167.339844 98.378906 166.972656 97.152344 166.304688 L 82.316406 165.566406 L 82.8125 158.625 L 97.382812 160.089844 C 98.65625 159.511719 100.054688 159.246094 101.453125 159.316406 Z M 101.453125 159.316406 "/>
<path style=" stroke:none;fill-rule:nonzero;fill:rgb(42.352941%,38.823529%,100%);fill-opacity:1;" d="M 61.984375 116.765625 C 61.984375 116.765625 69.984375 117.765625 70.984375 126.25 C 71.984375 134.734375 73.484375 155.199219 73.484375 155.199219 L 91.984375 154.703125 L 91.601562 167.03125 C 91.601562 167.03125 59.484375 173.171875 57.484375 161.191406 C 55.484375 149.210938 53.984375 119.945312 57.484375 118.355469 C 60.984375 116.765625 61.984375 116.765625 61.984375 116.765625 Z M 61.984375 116.765625 "/>
<path style=" stroke:none;fill-rule:nonzero;fill:rgb(24.705882%,23.921569%,33.72549%);fill-opacity:1;" d="M 165.867188 36.644531 L 161.753906 34.699219 C 163.441406 37.050781 164.894531 40.722656 165.675781 43.644531 C 166.992188 40.921875 169.117188 37.59375 171.222656 35.601562 L 166.871094 36.71875 C 169.550781 23.609375 179.632812 14.195312 191.175781 14.195312 L 191.335938 13.722656 C 179.28125 13.722656 168.605469 23.003906 165.867188 36.644531 Z M 165.867188 36.644531 "/>
<path style=" stroke:none;fill-rule:nonzero;fill:rgb(42.352941%,38.823529%,100%);fill-opacity:1;" d="M 184.808594 56.625 L 158.808594 56.625 C 157.707031 56.625 156.808594 55.726562 156.808594 54.628906 C 156.808594 53.527344 157.707031 52.632812 158.808594 52.632812 L 184.808594 52.632812 C 185.910156 52.632812 186.808594 53.527344 186.808594 54.628906 C 186.808594 55.726562 185.910156 56.625 184.808594 56.625 Z M 184.808594 56.625 "/>
<path style=" stroke:none;fill-rule:nonzero;fill:rgb(24.705882%,23.921569%,33.72549%);fill-opacity:1;" d="M 125.703125 141.324219 L 108.652344 142.757812 C 108.222656 142.792969 107.84375 142.472656 107.808594 142.042969 C 107.773438 141.617188 108.09375 141.238281 108.523438 141.199219 L 125.570312 139.765625 C 126 139.730469 126.382812 140.050781 126.417969 140.480469 C 126.453125 140.910156 126.132812 141.285156 125.703125 141.324219 Z M 125.703125 141.324219 "/>
<path style=" stroke:none;fill-rule:nonzero;fill:rgb(24.705882%,23.921569%,33.72549%);fill-opacity:1;" d="M 124.203125 146.316406 L 107.152344 147.75 C 106.722656 147.785156 106.34375 147.464844 106.308594 147.035156 C 106.273438 146.605469 106.59375 146.230469 107.023438 146.191406 L 124.070312 144.757812 C 124.5 144.722656 124.882812 145.042969 124.917969 145.472656 C 124.953125 145.898438 124.632812 146.277344 124.203125 146.316406 Z M 124.203125 146.316406 "/>
<path style=" stroke:none;fill-rule:nonzero;fill:rgb(24.705882%,23.921569%,33.72549%);fill-opacity:1;" d="M 122.703125 151.304688 L 105.652344 152.742188 C 105.222656 152.777344 104.84375 152.457031 104.808594 152.027344 C 104.773438 151.597656 105.09375 151.21875 105.523438 151.183594 L 122.570312 149.75 C 123 149.714844 123.382812 150.035156 123.417969 150.460938 C 123.453125 150.890625 123.132812 151.269531 122.703125 151.304688 Z M 122.703125 151.304688 "/>
<path style=" stroke:none;fill-rule:nonzero;fill:rgb(18.431373%,18.039216%,25.490196%);fill-opacity:1;" d="M 76.15625 95.1875 L 84.199219 85.964844 L 82.859375 82.074219 L 87.179688 86.171875 L 89.40625 85.566406 C 89.40625 85.566406 89.386719 77.667969 83.070312 77.3125 C 76.753906 76.957031 72.222656 77.621094 72.222656 77.621094 C 72.222656 77.621094 63.191406 80.445312 62.839844 82.613281 C 62.484375 84.777344 57.425781 87.65625 57.425781 87.65625 C 57.425781 87.65625 53.035156 90.914062 55.089844 96.378906 C 57.140625 101.84375 61.824219 108.664062 58.582031 111.988281 C 55.339844 115.316406 50.757812 117.875 52.992188 119.152344 C 55.222656 120.425781 59.25 114.441406 62.917969 116.835938 C 66.582031 119.226562 72.777344 128.835938 78.589844 123.875 C 84.402344 118.910156 85.476562 113.164062 85.476562 113.164062 L 76.203125 104.011719 C 76.203125 104.011719 70.582031 94.445312 76.15625 95.1875 Z M 76.15625 95.1875 "/>
<path style=" stroke:none;fill-rule:nonzero;fill:rgb(24.705882%,23.921569%,33.72549%);fill-opacity:1;" d="M 204.011719 2.308594 L 178.738281 2.308594 C 178.101562 2.308594 177.582031 1.789062 177.582031 1.152344 C 177.582031 0.515625 178.101562 0 178.738281 0 L 204.011719 0 C 204.648438 0 205.167969 0.515625 205.167969 1.152344 C 205.167969 1.789062 204.648438 2.308594 204.011719 2.308594 Z M 204.011719 2.308594 "/>
<path style=" stroke:none;fill-rule:nonzero;fill:rgb(24.705882%,23.921569%,33.72549%);fill-opacity:1;" d="M 217.574219 14.613281 L 165.175781 14.613281 C 164.539062 14.613281 164.023438 14.097656 164.023438 13.460938 C 164.023438 12.824219 164.539062 12.308594 165.175781 12.308594 L 217.574219 12.308594 C 218.210938 12.308594 218.730469 12.824219 218.730469 13.460938 C 218.730469 14.097656 218.210938 14.613281 217.574219 14.613281 Z M 217.574219 14.613281 "/>
</g>
</svg>
